# xmcd
#
# Track frame offsets: 
#        150
#        13737
#        25576
#        36036
#        71134
#        91291
#        121276
#        131458
#        140854
#        155004
#        172503
#        187019
#        202966
#
# Disc length: 2933 seconds
#
# Revision: 0
# Processed by: cddbd v1.5.2PL0 Copyright (c) Steve Scherf et al.
# Submitted via: ExactAudioCopy v0.99pb4
#
DISCID=ac0b730d
DTITLE=Various Artist - Guitar Hot Shots (instrumental 1983-06))
DYEAR=2006
DGENRE=Country
TTITLE0=The Morells - Popbelly
TTITLE1=Redd Volkaert - Breakneck
TTITLE2=Deke Dickerson - Rockin' Gypsy
TTITLE3=Dave Alvin - Long White Cadillac
TTITLE4=The Hellacasters - Deiter's Lounge
TTITLE5=Joe Louis Walker - City of Angels
TTITLE6=The Hot Club of Cowtown - Mission to Moscow
TTITLE7=Dave Biller and Jeremy Wakefield - Martian Cuts
TTITLE8=The Domino Kings - Some Kind of Sign
TTITLE9=Dick Dale - Esperanza
TTITLE10=Chris Smither - Dust My Broom
TTITLE11=Otis Rush - Natural Ball
TTITLE12=Robert Cray - Playin' in The Dirt
EXTD=
EXTT0=
EXTT1=
EXTT2=
EXTT3=
EXTT4=
EXTT5=
EXTT6=
EXTT7=
EXTT8=
EXTT9=
EXTT10=
EXTT11=
EXTT12=
PLAYORDER=
